<?xml version="1.0" standalone="no"?><!DOCTYPE svg PUBLIC "-//W3C//DTD SVG 1.1//EN" "http://www.w3.org/Graphics/SVG/1.1/DTD/svg11.dtd"><svg t="1593784138363" class="icon" viewBox="0 0 1024 1024" version="1.1" xmlns="http://www.w3.org/2000/svg" p-id="815" xmlns:xlink="http://www.w3.org/1999/xlink" width="200" height="200"><defs><style type="text/css"></style></defs><path d="M452.7104 204.4928a170.666667 170.666667 0 0 1 143.530667-3.925333l8.533333 3.959466 187.0848 93.184a170.666667 170.666667 0 0 1 94.4128 144.725334l0.170667 8.021333V682.666667a170.666667 170.666667 0 0 1-163.259734 170.496L715.776 853.333333H341.333333a170.666667 170.666667 0 0 1-170.496-163.259733L170.666667 682.666667v-232.1408a170.666667 170.666667 0 0 1 87.517866-149.060267l7.168-3.754667 187.357867-93.184z m121.6512 61.166933a102.4 102.4 0 0 0-84.548267-3.072l-6.724266 3.037867-187.392 93.184A102.4 102.4 0 0 0 239.2064 443.733333l-0.238933 6.826667V682.666667a102.4 102.4 0 0 0 96.392533 102.229333L341.333333 785.066667h374.442667a102.4 102.4 0 0 0 102.229333-96.392534L818.176 682.666667v-232.209067a102.4 102.4 0 0 0-50.722133-88.405333l-6.007467-3.242667-187.0848-93.184z" p-id="816" fill="#dbdbdb"></path></svg>