<?xml version="1.0" standalone="no"?><!DOCTYPE svg PUBLIC "-//W3C//DTD SVG 1.1//EN" "http://www.w3.org/Graphics/SVG/1.1/DTD/svg11.dtd"><svg t="1593784269594" class="icon" viewBox="0 0 1024 1024" version="1.1" xmlns="http://www.w3.org/2000/svg" p-id="3484" xmlns:xlink="http://www.w3.org/1999/xlink" width="200" height="200"><defs><style type="text/css"></style></defs><path d="M220.578951 413.547494a107.866009 107.866009 0 1 1-107.683186 107.866009 107.866009 107.866009 0 0 1 107.683186-107.866009m0-73.129498a180.995507 180.995507 0 1 0 181.726802 180.995507 180.812684 180.812684 0 0 0-180.812684-180.995507zM751.316282 815.576909a67.644786 67.644786 0 1 1-67.461962 67.461962 67.644786 67.644786 0 0 1 67.461962-67.461962m0-73.129498a140.774284 140.774284 0 1 0 140.774284 140.59146 140.59146 140.59146 0 0 0-140.774284-140.59146zM843.642273 73.129681a67.644786 67.644786 0 1 1-67.644785 67.644785 67.644786 67.644786 0 0 1 67.644785-67.644785m0-73.129498a140.774284 140.774284 0 1 0 140.59146 140.774283A140.774284 140.774284 0 0 0 843.642273 0.000183z" p-id="3485" fill="#d81e06"></path><path d="M282.519635 654.81999l40.221224-69.655847L711.277882 809.470596l-40.221224 69.655846zM294.64085 420.750749L734.752451 167.814098l40.221224 69.98493L334.843791 490.735679z" p-id="3486" fill="#d81e06"></path></svg>