<?xml version="1.0" standalone="no"?><!DOCTYPE svg PUBLIC "-//W3C//DTD SVG 1.1//EN" "http://www.w3.org/Graphics/SVG/1.1/DTD/svg11.dtd"><svg t="1593784199949" class="icon" viewBox="0 0 1024 1024" version="1.1" xmlns="http://www.w3.org/2000/svg" p-id="1609" xmlns:xlink="http://www.w3.org/1999/xlink" width="200" height="200"><defs><style type="text/css"></style></defs><path d="M498.722133 141.5168c-204.5952 7.338667-364.544 179.2-357.205333 383.7952 7.338667 204.5952 179.165867 364.509867 383.761067 357.1712 204.629333-7.338667 364.544-179.165867 357.205333-383.761067-7.338667-204.629333-179.165867-364.544-383.761067-357.205333z m1.2288 34.133333c185.7536-6.690133 341.742933 138.513067 348.398934 324.266667 6.690133 185.787733-138.513067 341.8112-324.266667 348.4672-185.787733 6.621867-341.777067-138.581333-348.433067-324.3008C168.96 338.261333 314.1632 182.272 499.9168 175.650133z" p-id="1610" fill="#d81e06"></path><path d="M608.426667 506.538667a17.066667 17.066667 0 0 1 14.7456 19.114666c-7.202133 55.7056-54.784 98.440533-111.172267 98.440534a112.128 112.128 0 0 1-111.274667-98.6112 17.066667 17.066667 0 1 1 33.860267-4.061867A77.994667 77.994667 0 0 0 512 589.960533c39.082667 0 72.2944-29.832533 77.312-68.7104a17.066667 17.066667 0 0 1 16.042667-14.848l3.072 0.136534z" p-id="1611" fill="#d81e06"></path></svg>